<?xml version="1.0" encoding="UTF-8"?>
<svg xmlns="http://www.w3.org/2000/svg" xmlns:xlink="http://www.w3.org/1999/xlink" version="1.1" id="Layer_1" x="0px" y="0px" width="100%" viewBox="0 0 1124 888" enable-background="new 0 0 1124 888" xml:space="preserve" style="background: transparent;">

<path fill="#81D1C6" opacity="1.000000" stroke="none" d=" M489.082886,391.401611   C489.082886,391.401611 489.157257,391.755585 488.875793,392.079468   C488.420990,392.688507 488.247650,392.973663 488.074341,393.258850   C488.074371,393.258850 488.094055,393.057190 487.952271,393.245605   C487.550812,393.953217 487.291168,394.472443 487.031525,394.991638   C487.031525,394.991638 487.032867,395.025177 486.837952,395.193695   C486.421906,395.600098 486.204803,395.841614 485.991730,396.086792   C485.991730,396.086792 486.031921,396.024994 485.713379,396.094788   C482.932281,400.760986 480.469788,405.357452 478.007263,409.953888   C478.007263,409.953888 478.035645,410.003906 477.829224,410.197632   C477.401398,410.853729 477.180023,411.316071 476.958649,411.778442   C473.726013,417.514862 470.433472,423.218658 467.284332,429.000580   C465.536072,432.210480 466.392273,434.024323 470.322510,433.997711   C478.140961,433.944733 485.970734,434.202545 493.770569,433.818268   C495.520264,433.732025 497.807129,431.902191 498.758698,430.248840   C506.929443,416.052216 514.838013,401.704834 522.868591,387.427063   C523.508240,386.289795 524.475098,385.336548 526.057922,384.142395   C551.619995,384.024017 576.414001,384.061005 601.122803,384.447998   C595.756653,393.944794 590.475769,403.091644 584.954346,412.041748   C583.319519,412.961456 581.588074,413.838196 580.592712,415.238281   C577.323486,419.836792 574.540405,424.788361 571.172302,429.307495   C563.530640,439.560822 560.510742,449.845184 569.814026,460.768982   C570.340576,461.387207 570.552429,462.262268 570.999390,462.961090   C575.474976,469.958679 579.902405,476.989380 584.544434,483.875275   C585.110107,484.714417 586.047241,488.443390 588.422729,484.952637   C592.797913,491.998657 596.791504,498.906189 601.088501,505.619568   C602.020752,507.076050 604.041565,507.835693 605.561035,508.916321   C604.268188,509.871613 602.975342,510.826874 601.282349,511.301208   C599.875122,509.934845 598.910217,508.346100 597.853882,508.282745   C592.599365,507.967468 587.320862,508.013367 582.050659,508.006317   C566.242126,507.985077 550.433167,507.931335 534.625488,508.049072   C531.023682,508.075897 528.335938,507.326599 526.215698,504.039307   C524.137390,500.816895 521.298340,498.085052 518.793152,495.137878   C518.793152,495.137878 518.935425,495.069397 518.782227,494.933105   C518.376648,494.525635 518.124268,494.254425 517.871887,493.983215   C517.871887,493.983215 517.959961,494.047607 517.940186,493.742737   C517.267029,492.639954 516.613647,491.841980 515.960205,491.044006   C515.960205,491.044006 515.960449,491.013702 515.957825,490.634460   C514.901733,488.554749 513.848267,486.854279 512.794800,485.153809   C512.794800,485.153809 512.909119,485.098053 512.902527,484.747681   C512.487000,480.282684 511.603699,476.469391 506.955902,475.047821   C506.955902,475.047821 506.998871,475.009705 506.981445,474.628113   C504.586731,468.644958 502.332245,462.985260 499.729553,457.490509   C499.203827,456.380524 497.435303,455.421234 496.109711,455.210510   C492.194519,454.588196 488.215363,454.067596 484.259155,454.052795   C458.344940,453.955841 432.430115,453.976624 406.515717,454.045654   C404.058899,454.052185 401.338654,454.116302 399.230347,455.151215   C397.500122,456.000519 395.092926,458.761749 395.447418,459.926208   C396.369141,462.954224 393.675568,467.764374 399.105316,468.913513   C399.105316,468.913513 399.014496,468.995270 399.031250,469.332825   C399.030273,470.443756 399.012512,471.217102 398.658417,472.019104   C397.102234,472.724731 395.882416,473.401733 394.037720,474.425476   C392.879547,469.687469 391.583466,465.264221 390.756165,460.754944   C389.920258,456.198547 389.419067,451.568268 389.014923,446.949036   C388.691742,443.255310 386.410461,441.278473 383.233856,441.333160   C381.516602,441.362732 378.660004,443.318970 378.339813,444.833618   C376.784790,452.189056 375.914032,459.689148 374.800964,467.138031   C374.397430,465.171417 373.711731,463.214264 373.645447,461.236359   C373.473572,456.108185 373.574463,450.970886 373.946503,445.157288   C374.812134,438.989136 377.943512,437.716644 383.135284,437.877167   C395.250519,438.251831 407.385620,438.046814 419.511688,437.950958   C421.796539,437.932892 424.128326,437.518494 426.333221,436.907379   C427.191315,436.669586 428.285431,435.432373 428.367706,434.564667   C428.737579,430.665131 428.782379,426.734772 428.944427,422.815552   C430.257874,408.998901 434.598663,396.136444 441.376099,384.091156   C444.923035,377.787384 448.737000,371.633850 453.047119,365.146545   C454.737671,363.393921 455.811432,361.907227 456.885132,360.420502   C457.139587,360.011841 457.394012,359.603180 458.225800,359.057098   C462.159882,354.881500 465.516602,350.843323 468.873291,346.805115   C468.873291,346.805115 468.881622,346.879578 469.197998,346.855957   C472.334717,344.193207 475.155029,341.554047 477.975403,338.914917   C484.705597,334.302002 491.435760,329.689056 498.898224,325.003479   C500.122559,324.867615 500.677307,324.931061 501.097565,324.722900   C515.671875,317.504669 531.068542,313.281342 547.260803,311.828003   C549.649658,311.613556 551.991150,310.852081 554.349487,310.321014   C557.565674,309.596741 560.777039,308.850739 563.990479,308.114044   C564.440979,308.065491 564.891479,308.016937 565.780762,308.345703   C567.475891,308.526428 568.732239,308.329834 569.988586,308.133240   C571.387573,308.077332 572.786499,308.021393 574.752136,308.279602   C576.244629,308.672119 577.170471,308.750549 578.096313,308.828979   C578.525024,308.869049 578.953735,308.909119 579.843140,309.372131   C581.317322,310.234375 582.291687,310.865631 583.350708,311.081024   C589.273438,312.285675 595.192932,313.543915 601.162903,314.462708   C604.100708,314.914856 607.144958,314.675415 610.141052,314.748901   C622.314514,319.425171 634.741821,323.746368 645.279297,331.626770   C656.555542,340.059692 666.760681,349.583588 675.694763,360.720978   C683.531494,370.490265 689.068604,381.279785 694.206909,392.406342   C697.164612,398.811035 699.557617,405.519318 701.653564,412.262299   C702.798035,415.944366 699.506226,416.677185 696.797119,416.762726   C690.638916,416.957184 684.471802,416.871094 678.308350,416.894501   C673.477417,416.912872 668.645874,416.979675 663.815796,416.923340   C659.098267,416.868317 656.006958,414.738739 653.583008,410.421326   C644.355713,393.985992 634.728088,377.775391 625.248474,361.481689   C625.165161,361.338501 625.009888,361.220428 624.972351,361.069672   C622.844177,352.523651 616.601074,352.472321 609.343079,352.556976   C578.528870,352.916382 547.708496,352.816071 516.890808,352.734497   C513.337585,352.725098 510.992981,353.722107 509.202393,356.871796   C502.995789,367.789154 496.606110,378.602417 489.928528,389.951111   C489.408295,390.765137 489.245605,391.083374 489.082886,391.401611  z"/>
<path fill="#1D7978" opacity="1.000000" stroke="none" d=" M585.194885,412.238495   C590.475769,403.091644 595.756653,393.944794 601.433716,384.304260   C602.925171,383.513794 604.020508,383.216980 605.115784,382.920166   C605.115784,382.920166 605.020142,382.967163 605.117920,383.143585   C605.486755,383.517731 605.757690,383.715424 606.028687,383.913116   C613.658569,396.714294 621.305664,409.505310 628.905945,422.324066   C630.760742,425.452271 632.234497,428.835205 634.344788,431.769226   C635.201233,432.960022 637.289062,433.878998 638.818237,433.881409   C669.739075,433.930084 700.660156,433.827301 732.417603,433.874817   C735.949158,435.660736 738.464050,438.143707 741.384644,438.787994   C745.121155,439.612274 745.132812,441.166382 744.169250,443.988770   C742.359558,449.288727 744.088501,452.130249 749.674133,452.808655   C751.045044,452.975189 752.996765,452.787476 753.781677,451.934601   C754.397034,451.265900 753.988403,449.136536 753.404663,447.972046   C750.863586,442.902649 748.733704,437.963623 748.813965,431.945923   C748.894531,425.899994 747.953003,419.718048 746.538818,413.816315   C745.544434,409.666412 744.190002,404.976837 738.629028,403.986908   C737.477905,403.782043 736.488831,402.667114 735.501526,402.021576   C739.094666,391.621857 738.886536,391.838623 731.209717,384.468506   C727.491760,380.899078 725.336121,376.061554 724.095337,370.760895   C731.735229,370.437531 733.397827,368.733154 732.770386,362.308960   C732.663940,361.218994 731.851440,360.216339 731.516541,359.126801   C730.650452,356.309235 730.602356,353.787354 734.231201,352.903168   C736.168701,356.634979 738.106140,360.366791 739.858398,364.729431   C737.276123,369.522125 737.878479,370.723267 743.002747,371.999786   C743.002747,371.999786 743.149475,372.219604 743.204956,372.620972   C743.476379,373.337708 743.692322,373.653076 743.908264,373.968414   C746.650269,383.184021 750.235596,392.246094 751.948120,401.649200   C754.949402,418.127991 756.734863,434.825928 759.188599,451.408569   C759.725708,455.037964 758.441345,456.855988 754.971130,457.256409   C752.497131,457.541870 750.002197,457.781464 747.515259,457.795837   C735.357727,457.866058 723.186218,458.192169 711.048218,457.710022   C705.945312,457.507355 704.621582,459.603210 703.698853,463.890289   C701.579285,473.738190 699.576538,483.666290 696.543152,493.250702   C690.770996,511.488953 680.441345,527.013733 667.005493,540.649902   C657.286621,550.513672 647.293091,559.806274 634.914612,566.375916   C620.274170,574.146118 605.083618,580.672607 588.651733,582.646240   C575.188477,584.263306 561.330139,585.158875 547.897705,583.833191   C529.961121,582.063049 512.960449,575.827209 497.273224,566.595459   C485.024170,559.387085 473.968506,550.781860 464.075928,540.444397   C448.380035,524.042725 438.642792,504.470734 431.702362,483.236877   C431.051880,481.246704 431.141724,479.014557 430.837830,476.477203   C432.496033,476.322266 433.754303,476.103271 435.012634,476.102905   C446.337677,476.099579 457.665649,476.291656 468.986298,476.079681   C473.394684,475.997192 476.126801,477.693512 478.251740,481.403076   C488.080902,498.561920 498.707550,515.309937 507.597290,532.937012   C510.912201,539.510010 514.514526,540.595459 520.495789,540.002625   C522.970703,539.757324 525.488159,539.941833 528.803833,539.945801   C530.095032,539.949951 530.568726,539.939148 531.042419,539.928345   C531.042419,539.928345 530.982239,539.973206 531.336548,540.180847   C535.306152,540.571350 538.921448,540.754211 542.536743,540.937073   C556.463867,540.807800 570.390808,540.624878 584.318237,540.566711   C594.776855,540.523010 605.236145,540.639587 616.455566,540.771240   C617.796021,540.608887 618.376160,540.360229 618.956238,540.111511   C622.210388,535.551636 625.848389,531.214966 628.651855,526.393066   C640.391113,506.201874 651.896301,485.874359 663.435181,465.567200   C664.544678,463.614716 665.293945,461.457550 666.633057,458.444550   C663.400818,458.189514 661.029358,457.881348 658.653503,457.841309   C654.331055,457.768433 649.900818,458.467896 645.703857,457.747620   C636.868408,456.231323 632.980225,461.347137 629.356750,468.032440   C622.321716,481.011658 614.876770,493.768829 607.581177,506.606384   C607.174805,507.321533 606.583618,507.931732 605.819763,508.753540   C604.041565,507.835693 602.020752,507.076050 601.088501,505.619568   C596.791504,498.906189 592.797913,491.998657 588.335815,484.625092   C581.497375,472.884430 575.176575,461.583252 568.447449,450.530701   C566.320312,447.036987 566.437500,444.529877 568.535706,441.096252   C574.325317,431.621552 579.672607,421.876556 585.194885,412.238495  M732.970215,444.392822   C734.263428,443.476562 735.556580,442.560303 736.849792,441.644043   C736.645142,441.252777 736.440430,440.861542 736.235779,440.470306   C731.971069,440.923523 727.706360,441.376740 723.441650,441.829956   C723.495178,442.735657 723.548645,443.641327 723.602173,444.547028   C726.489319,444.547028 729.376404,444.547028 732.970215,444.392822  M733.344360,379.268280   C732.698914,379.276917 732.053528,379.285553 731.408081,379.294159   C731.735901,379.954956 732.063782,380.615753 732.391663,381.276520   C732.795227,380.778320 733.198792,380.280121 733.344360,379.268280  z"/>
<path fill="#80D0C5" opacity="1.000000" stroke="none" d=" M374.819519,467.114471   C375.914032,459.689148 376.784790,452.189056 378.339813,444.833618   C378.660004,443.318970 381.516602,441.362732 383.233856,441.333160   C386.410461,441.278473 388.691742,443.255310 389.014923,446.949036   C389.419067,451.568268 389.920258,456.198547 390.756165,460.754944   C391.583466,465.264221 392.879547,469.687469 394.037720,474.425476   C395.882416,473.401733 397.102234,472.724731 398.779938,472.214447   C399.464233,473.244843 399.690643,474.108551 399.917084,474.972260   C400.191132,475.778198 400.465179,476.584106 400.813965,478.100098   C401.629761,481.879425 402.370880,484.948669 403.112000,488.017914   C403.112000,488.017914 403.256470,488.135132 403.221436,488.482483   C403.262695,489.179688 403.339020,489.529510 403.415375,489.879333   C403.538116,490.464661 403.660858,491.049988 403.927307,492.292450   C404.366913,493.294739 404.662811,493.639893 404.958740,493.985046   C405.102997,494.577209 405.247253,495.169403 405.246033,496.496765   C406.193848,499.775116 407.287170,502.318298 408.380493,504.861450   C415.603546,521.448425 424.190186,537.085632 435.451935,551.490540   C455.110962,576.636230 480.845490,592.741394 509.776123,604.515625   C514.544678,606.456299 519.957031,606.795471 525.044434,607.991394   C525.912415,608.195435 526.641357,608.990784 527.654175,610.073608   C531.130737,611.529785 534.423401,613.287903 537.637817,613.154785   C546.394836,612.792297 551.939697,617.339905 553.196533,626.134216   C553.847290,630.687500 552.130310,632.818726 548.028503,633.440063   C543.113586,634.184570 538.159119,634.667969 533.221741,635.264465   C533.221741,635.264465 532.787964,635.301331 532.787964,635.301331   C532.787964,635.301331 532.370911,635.176514 531.911499,634.850220   C527.915649,633.800354 524.379150,633.076843 520.842651,632.353271   C517.819214,631.607666 514.795776,630.862061 511.200867,629.827087   C510.075989,629.365417 509.522583,629.193054 508.969177,629.020752   C508.969177,629.020752 509.004486,628.998291 508.778503,628.855347   C508.251007,628.506042 507.949463,628.299683 507.647919,628.093323   C507.303467,628.179504 506.959045,628.265686 506.226196,627.926514   C505.200317,627.028748 504.625549,626.409363 503.915741,626.106689   C496.091827,622.769775 487.738037,620.328369 480.522858,615.989685   C468.681610,608.869263 457.614380,600.468323 446.112091,592.769653   C444.627655,591.776001 442.496307,591.748962 440.664612,591.274109   C440.664612,591.274109 440.837463,591.245239 440.701202,591.082520   C440.110504,590.596680 439.656067,590.273560 439.201630,589.950439   C438.890717,589.764160 438.579803,589.577942 437.945496,588.998779   C437.350067,588.423523 437.099731,588.215149 436.871094,587.980713   C436.871094,587.980713 436.974792,588.020142 436.910187,587.719727   C433.223114,583.431885 429.713226,579.333557 425.933197,575.501648   C423.885773,573.426208 421.377594,571.805298 419.077271,569.979309   C411.499969,559.004456 403.427673,548.333069 396.466614,536.980408   C387.068878,521.653748 381.814575,504.564972 377.664459,487.162323   C377.130432,484.922913 377.097473,482.563965 376.877258,479.355408   C376.948761,476.632355 377.269196,474.756287 376.924988,473.011353   C376.527649,470.997101 375.544220,469.098419 374.815277,467.149567   C374.815277,467.149567 374.838074,467.090912 374.819519,467.114471  z"/>
<path fill="#1D7876" opacity="1.000000" stroke="none" d=" M647.037109,620.075378   C626.856079,629.675537 606.033997,635.459534 584.072388,636.945129   C575.074585,637.553833 575.165039,637.508423 574.999207,627.837646   C574.949280,624.925720 574.286865,622.014099 573.786133,619.122925   C573.279968,616.199829 576.280640,613.729187 580.723755,613.253967   C597.028625,611.510010 612.844727,607.881958 628.174866,601.865417   C643.470825,595.862427 657.433044,587.679810 670.325989,577.641541   C695.492004,558.047485 713.515442,533.158936 724.260559,503.148499   C726.861267,495.884949 727.971863,488.090057 730.533264,480.808838   C731.301514,478.624969 734.517395,476.194031 736.864258,475.901825   C741.918213,475.272400 747.135315,475.988495 752.286865,476.094727   C755.832764,476.167847 756.336426,478.126740 755.716492,481.102844   C751.422852,501.714294 744.102722,521.189026 734.099487,539.704224   C725.419617,555.769958 714.209961,569.781189 701.185791,582.557739   C685.332947,598.109314 667.549072,610.686768 647.037109,620.075378  z"/>
<path fill="#1D7775" opacity="1.000000" stroke="none" d=" M734.093201,352.582733   C730.602356,353.787354 730.650452,356.309235 731.516541,359.126801   C731.851440,360.216339 732.663940,361.218994 732.770386,362.308960   C733.397827,368.733154 731.735229,370.437531 724.095337,370.760895   C725.336121,376.061554 727.491760,380.899078 731.209717,384.468506   C738.886536,391.838623 739.094666,391.621857 735.501526,402.021576   C736.488831,402.667114 737.477905,403.782043 738.629028,403.986908   C744.190002,404.976837 745.544434,409.666412 746.538818,413.816315   C747.953003,419.718048 748.894531,425.899994 748.813965,431.945923   C748.733704,437.963623 750.863586,442.902649 753.404663,447.972046   C753.988403,449.136536 754.397034,451.265900 753.781677,451.934601   C752.996765,452.787476 751.045044,452.975189 749.674133,452.808655   C744.088501,452.130249 742.359558,449.288727 744.169250,443.988770   C745.132812,441.166382 745.121155,439.612274 741.384644,438.787994   C738.464050,438.143707 735.949158,435.660736 732.850708,433.910309   C732.924683,432.167267 734.015320,430.419250 733.788330,428.863434   C729.577576,400.002808 720.392395,373.015289 703.288513,349.065460   C682.866882,320.469635 655.778015,300.482147 623.128784,288.156097   C610.756042,283.485046 597.993225,279.393494 584.361755,279.844391   C582.099365,279.919250 579.529175,279.527985 577.611572,278.446899   C576.016541,277.547729 574.199585,275.334595 574.172546,273.675903   C574.084473,268.270386 574.771484,262.852234 575.159851,257.438965   C575.344116,254.868744 575.711853,253.103989 579.309570,253.701294   C596.808594,256.606567 614.369507,259.115356 631.180969,265.160950   C651.252075,272.378754 669.846252,282.474518 686.058716,296.176361   C697.670105,305.989624 708.328918,317.091919 718.385925,328.522522   C724.574829,335.556732 728.831116,344.291229 734.093201,352.582733  z"/>
<path fill="#81D0C5" opacity="1.000000" stroke="none" d=" M381.891693,389.509125   C383.957855,383.297913 385.275604,376.700287 388.242340,370.954071   C394.898346,358.062134 401.727264,345.163513 409.743317,333.103485   C415.062286,325.101196 422.332825,318.324036 429.146149,311.408722   C435.128113,305.337219 441.561676,299.688293 448.023682,294.117035   C458.895538,284.743683 471.374786,277.775665 484.421539,272.121002   C495.577057,267.286072 507.314667,263.787262 518.825134,259.784729   C520.880859,259.069916 523.084534,258.780975 525.935181,258.455261   C528.103638,258.110931 529.556824,257.606689 531.009949,257.102478   C531.169434,257.028748 531.328857,256.955078 532.128235,256.869507   C533.287781,256.884460 533.807434,256.911285 534.327026,256.938110   C534.885315,256.844391 535.443542,256.750702 536.724365,256.753296   C540.393311,257.231842 543.332397,257.861237 546.287415,257.948151   C553.971802,258.174072 553.974792,258.079041 553.989624,265.829529   C553.991516,266.826599 553.999817,267.823792 553.989258,268.820740   C553.928772,274.546417 552.472656,276.493011 546.868713,276.862122   C530.263489,277.955902 514.787170,283.235443 499.656006,289.585693   C493.780029,292.051697 488.407288,295.707581 482.773102,298.762024   C478.066620,301.313446 472.885406,303.221100 468.698975,306.435638   C464.388123,309.745636 461.026550,314.291931 457.249634,318.297302   C457.249603,318.297272 457.166321,318.163513 456.873718,318.205444   C455.398102,319.177185 454.215057,320.106995 453.031982,321.036774   C453.031982,321.036774 453.000732,320.998016 452.852905,321.163940   C452.471893,321.531952 452.241974,321.737793 452.015381,321.947327   C452.015381,321.947327 452.011261,322.020660 451.826447,322.173645   C451.437225,322.526581 451.229187,322.722717 451.017548,322.915009   C451.017548,322.915009 451.010742,323.026855 450.818298,323.180115   C450.434387,323.535858 450.225708,323.718750 449.999786,323.882050   C449.999786,323.882050 450.005737,323.996063 449.809753,324.164917   C449.423309,324.551758 449.221283,324.758453 449.007629,324.953827   C449.007629,324.953827 449.013458,325.014343 448.830475,325.160156   C448.434967,325.495850 448.214874,325.676483 447.987244,325.847931   C433.136078,341.931183 420.270813,359.359955 411.098206,380.067261   C410.430603,381.345520 410.228638,382.162628 410.026703,382.979736   C410.026703,382.979736 410.044006,383.012817 409.826355,383.232849   C409.422974,384.002808 409.237183,384.552673 409.051422,385.102570   C409.051422,385.102570 409.032349,385.034973 408.756165,385.211304   C408.068634,386.692749 407.657257,387.997864 407.245911,389.302948   C407.245911,389.302948 407.227234,389.161255 406.952942,389.277893   C405.658478,390.822937 404.249664,392.114594 403.690216,393.705078   C401.937408,398.688141 400.769836,403.890320 398.805664,408.778656   C398.109619,410.510986 395.973053,412.079742 394.131500,412.815704   C392.413208,413.502380 390.213593,413.000244 388.225922,412.994659   C380.413666,412.972656 377.589539,409.239563 380.803772,401.943237   C382.681946,397.679840 382.970703,393.781158 381.891693,389.509125  z"/>
<path fill="#81D0C5" opacity="1.000000" stroke="none" d=" M399.042999,468.457336   C393.675568,467.764374 396.369141,462.954224 395.447418,459.926208   C395.092926,458.761749 397.500122,456.000519 399.230347,455.151215   C401.338654,454.116302 404.058899,454.052185 406.515717,454.045654   C432.430115,453.976624 458.344940,453.955841 484.259155,454.052795   C488.215363,454.067596 492.194519,454.588196 496.109711,455.210510   C497.435303,455.421234 499.203827,456.380524 499.729553,457.490509   C502.332245,462.985260 504.586731,468.644958 506.957397,474.641663   C504.211670,470.353607 501.682434,465.526489 498.621735,461.063843   C497.523499,459.462585 495.150116,457.772156 493.348206,457.760590   C462.139801,457.560730 430.929779,457.616638 398.980682,457.616638   C398.980682,461.219818 398.980682,464.610474 399.042999,468.457336  z"/>
<path fill="#92DDD2" opacity="1.000000" stroke="none" d=" M457.563538,318.147461   C461.026550,314.291931 464.388123,309.745636 468.698975,306.435638   C472.885406,303.221100 478.066620,301.313446 482.773102,298.762024   C488.407288,295.707581 493.780029,292.051697 499.656006,289.585693   C514.787170,283.235443 530.263489,277.955902 546.868713,276.862122   C552.472656,276.493011 553.928772,274.546417 553.989258,268.820740   C553.999817,267.823792 553.991516,266.826599 553.989624,265.829529   C553.974792,258.079041 553.971802,258.174072 546.287415,257.948151   C543.332397,257.861237 540.393311,257.231842 536.973755,256.903625   C543.155273,255.935669 549.810120,254.913742 557.844177,253.679993   C557.844177,261.332001 557.894775,268.550293 557.770813,275.765533   C557.757507,276.541046 556.875183,277.744537 556.144348,277.985107   C553.538757,278.842865 550.837891,279.870880 548.149170,279.942871   C529.288513,280.447968 511.553589,286.015350 494.998474,294.119415   C484.427948,299.293915 472.432556,303.074402 464.759491,313.338470   C463.192322,315.434845 460.208344,316.472107 457.563538,318.147461  z"/>
<path fill="#92DDD2" opacity="1.000000" stroke="none" d=" M518.853271,495.497314   C521.298340,498.085052 524.137390,500.816895 526.215698,504.039307   C528.335938,507.326599 531.023682,508.075897 534.625488,508.049072   C550.433167,507.931335 566.242126,507.985077 582.050659,508.006317   C587.320862,508.013367 592.599365,507.967468 597.853882,508.282745   C598.910217,508.346100 599.875122,509.934845 600.925354,511.166687   C577.656982,511.617249 554.345276,511.781586 531.034485,511.695709   C529.410034,511.689728 527.229797,510.198975 526.278381,508.757996   C523.555542,504.634369 521.332764,500.180695 518.853271,495.497314  z"/>
<path fill="#81D1C6" opacity="1.000000" stroke="none" d=" M533.533203,635.550842   C538.159119,634.667969 543.113586,634.184570 548.028503,633.440063   C552.130310,632.818726 553.847290,630.687500 553.196533,626.134216   C551.939697,617.339905 546.394836,612.792297 537.637817,613.154785   C534.423401,613.287903 531.130737,611.529785 527.925659,610.348389   C537.061462,611.147949 546.160767,612.129333 555.208008,613.463257   C556.229797,613.613953 557.639343,615.716431 557.706116,616.975464   C558.005737,622.625366 557.784607,628.300598 557.951477,633.960815   C558.060791,637.668701 554.998047,638.155457 552.957947,638.041382   C546.565796,637.683777 540.212830,636.624573 533.533203,635.550842  z"/>
<path fill="#92DDD2" opacity="1.000000" stroke="none" d=" M381.588837,389.771729   C382.970703,393.781158 382.681946,397.679840 380.803772,401.943237   C377.589539,409.239563 380.413666,412.972656 388.225922,412.994659   C390.213593,413.000244 392.413208,413.502380 394.131500,412.815704   C395.973053,412.079742 398.109619,410.510986 398.805664,408.778656   C400.769836,403.890320 401.937408,398.688141 403.690216,393.705078   C404.249664,392.114594 405.658478,390.822937 407.024353,389.275269   C406.015625,392.921753 404.383698,396.616364 403.394348,400.475739   C402.598907,403.578644 403.218231,407.144226 402.030731,410.017120   C400.949951,412.631836 398.535736,416.160889 396.263123,416.528442   C390.617249,417.441528 384.700073,417.007050 378.930908,416.582642   C377.591095,416.484070 375.147491,413.989471 375.349884,413.066010   C377.046051,405.326874 379.241180,397.697083 381.588837,389.771729  z"/>
<path fill="#92DDD2" opacity="1.000000" stroke="none" d=" M428.585571,422.991760   C428.782379,426.734772 428.737579,430.665131 428.367706,434.564667   C428.285431,435.432373 427.191315,436.669586 426.333221,436.907379   C424.128326,437.518494 421.796539,437.932892 419.511688,437.950958   C407.385620,438.046814 395.250519,438.251831 383.135284,437.877167   C377.943512,437.716644 374.812134,438.989136 374.088715,444.776245   C373.746826,442.146271 373.642761,439.217377 373.733459,435.629700   C373.941437,434.799530 373.954620,434.628082 373.967834,434.456635   C383.537689,434.301544 393.107056,434.095978 402.677521,434.006927   C410.768066,433.931641 418.859863,433.991425 427.235809,433.991425   C427.582794,430.201477 427.904755,426.684753 428.585571,422.991760  z"/>
<path fill="#92DDD2" opacity="1.000000" stroke="none" d=" M604.991028,382.537354   C604.020508,383.216980 602.925171,383.513794 601.518982,383.954285   C576.414001,384.061005 551.619995,384.024017 526.349243,383.973999   C527.282593,382.993286 528.685608,381.193634 530.103455,381.181885   C553.626221,380.986694 577.151001,380.996033 600.675049,381.044678   C602.072876,381.047546 603.469238,381.768005 604.991028,382.537354  z"/>
<path fill="#92DDD2" opacity="1.000000" stroke="none" d=" M440.829041,591.565247   C442.496307,591.748962 444.627655,591.776001 446.112091,592.769653   C457.614380,600.468323 468.681610,608.869263 480.522858,615.989685   C487.738037,620.328369 496.091827,622.769775 503.915741,626.106689   C504.625549,626.409363 505.200317,627.028748 505.966614,627.845642   C501.651245,626.792297 497.069427,625.724548 492.786560,623.939575   C473.814758,616.032349 456.151245,605.950134 440.829041,591.565247  z"/>
<path fill="#92DDD2" opacity="1.000000" stroke="none" d=" M563.530396,308.052185   C560.777039,308.850739 557.565674,309.596741 554.349487,310.321014   C551.991150,310.852081 549.649658,311.613556 547.260803,311.828003   C531.068542,313.281342 515.671875,317.504669 501.097565,324.722900   C500.677307,324.931061 500.122559,324.867615 499.246399,324.944733   C506.767120,321.311005 514.424011,316.899414 522.646545,314.230743   C530.857666,311.565796 539.599976,310.428345 548.177795,309.045166   C553.071411,308.256104 558.101562,308.313904 563.530396,308.052185  z"/>
<path fill="#92DDD2" opacity="1.000000" stroke="none" d=" M609.879822,314.461609   C607.144958,314.675415 604.100708,314.914856 601.162903,314.462708   C595.192932,313.543915 589.273438,312.285675 583.350708,311.081024   C582.291687,310.865631 581.317322,310.234375 580.153564,309.464569   C586.388672,310.063965 592.786926,310.914429 599.154114,311.955292   C602.669250,312.529968 606.132141,313.424133 609.879822,314.461609  z"/>
<path fill="#92DDD2" opacity="1.000000" stroke="none" d=" M419.182861,570.298523   C421.377594,571.805298 423.885773,573.426208 425.933197,575.501648   C429.713226,579.333557 433.223114,583.431885 436.889771,587.771240   C431.052094,582.288086 425.170288,576.452881 419.182861,570.298523  z"/>
<path fill="#92DDD2" opacity="1.000000" stroke="none" d=" M478.260193,409.733765   C480.469788,405.357452 482.932281,400.760986 485.743835,396.115509   C483.566315,400.548859 481.039734,405.031219 478.260193,409.733765  z"/>
<path fill="#92DDD2" opacity="1.000000" stroke="none" d=" M468.569397,346.950439   C465.516602,350.843323 462.159882,354.881500 458.462524,358.976074   C461.503113,355.053589 464.884338,351.074677 468.569397,346.950439  z"/>
<path fill="#81D0C5" opacity="1.000000" stroke="none" d=" M506.991913,475.401703   C511.603699,476.469391 512.487000,480.282684 512.862732,484.797302   C510.895660,482.050049 508.961792,478.902832 506.991913,475.401703  z"/>
<path fill="#92DDD2" opacity="1.000000" stroke="none" d=" M477.623352,338.950256   C475.155029,341.554047 472.334717,344.193207 469.160522,346.854767   C471.628235,344.246643 474.449768,341.616119 477.623352,338.950256  z"/>
<path fill="#1D7775" opacity="1.000000" stroke="none" d=" M742.984009,371.636597   C737.878479,370.723267 737.276123,369.522125 739.902954,365.082031   C741.077026,366.960388 742.021179,369.116913 742.984009,371.636597  z"/>
<path fill="#81D1C6" opacity="1.000000" stroke="none" d=" M521.073181,632.631714   C524.379150,633.076843 527.915649,633.800354 531.721741,634.743652   C528.428772,634.278931 524.866272,633.594482 521.073181,632.631714  z"/>
<path fill="#81D1C6" opacity="1.000000" stroke="none" d=" M374.869049,467.586487   C375.544220,469.098419 376.527649,470.997101 376.924988,473.011353   C377.269196,474.756287 376.948761,476.632355 376.893982,478.936157   C376.218170,475.622375 375.570496,471.822876 374.869049,467.586487  z"/>
<path fill="#81D0C5" opacity="1.000000" stroke="none" d=" M403.073059,487.640747   C402.370880,484.948669 401.629761,481.879425 400.938782,478.507507   C401.670685,481.224396 402.352417,484.243988 403.073059,487.640747  z"/>
<path fill="#81D0C5" opacity="1.000000" stroke="none" d=" M408.329651,504.478333   C407.287170,502.318298 406.193848,499.775116 405.124939,496.790253   C406.192505,498.930756 407.235657,501.512970 408.329651,504.478333  z"/>
<path fill="#1D7775" opacity="1.000000" stroke="none" d=" M542.154785,540.703369   C538.921448,540.754211 535.306152,540.571350 531.356201,540.148682   C534.605347,540.095825 538.189148,540.282776 542.154785,540.703369  z"/>
<path fill="#81D0C5" opacity="1.000000" stroke="none" d=" M512.845093,485.492249   C513.848267,486.854279 514.901733,488.554749 515.943787,490.640442   C514.920044,489.294037 513.907715,487.562378 512.845093,485.492249  z"/>
<path fill="#92DDD2" opacity="1.000000" stroke="none" d=" M456.582581,360.589996   C455.811432,361.907227 454.737671,363.393921 453.301941,364.929443   C454.053314,363.571991 455.166656,362.165741 456.582581,360.589996  z"/>
<path fill="#81D0C5" opacity="1.000000" stroke="none" d=" M399.997253,474.650604   C399.690643,474.108551 399.464233,473.244843 399.116272,472.185791   C399.012512,471.217102 399.030273,470.443756 399.068237,469.284302   C399.418091,470.708466 399.747742,472.518707 399.997253,474.650604  z"/>
<path fill="#92DDD2" opacity="1.000000" stroke="none" d=" M530.640259,257.066711   C529.556824,257.606689 528.103638,258.110931 526.359680,258.447632   C527.469421,257.863678 528.869934,257.447296 530.640259,257.066711  z"/>
<path fill="#92DDD2" opacity="1.000000" stroke="none" d=" M453.355713,320.969208   C454.215057,320.106995 455.398102,319.177185 456.937195,318.252136   C456.088623,319.138489 454.884033,320.020050 453.355713,320.969208  z"/>
<path fill="#92DDD2" opacity="1.000000" stroke="none" d=" M569.593750,308.069397   C568.732239,308.329834 567.475891,308.526428 566.113770,308.422974   C567.071594,308.083832 568.135193,308.044678 569.593750,308.069397  z"/>
<path fill="#92DDD2" opacity="1.000000" stroke="none" d=" M578.035400,308.566772   C577.170471,308.750549 576.244629,308.672119 575.167236,308.350891   C576.002014,308.173615 576.988220,308.239105 578.035400,308.566772  z"/>
<path fill="#92DDD2" opacity="1.000000" stroke="none" d=" M407.511108,389.087982   C407.657257,387.997864 408.068634,386.692749 408.790894,385.205933   C408.659973,386.307159 408.218140,387.590088 407.511108,389.087982  z"/>
<path fill="#92DDD2" opacity="1.000000" stroke="none" d=" M515.943970,491.375488   C516.613647,491.841980 517.267029,492.639954 517.907104,493.786133   C517.238464,493.325195 516.583130,492.516083 515.943970,491.375488  z"/>
<path fill="#92DDD2" opacity="1.000000" stroke="none" d=" M410.235962,382.736450   C410.228638,382.162628 410.430603,381.345520 410.820984,380.273987   C410.821350,380.844116 410.633301,381.668610 410.235962,382.736450  z"/>
<path fill="#81D0C5" opacity="1.000000" stroke="none" d=" M405.011047,493.825531   C404.662811,493.639893 404.366913,493.294739 403.980255,492.738007   C404.280792,492.906281 404.672058,493.286133 405.011047,493.825531  z"/>
<path fill="#92DDD2" opacity="1.000000" stroke="none" d=" M439.309692,590.215942   C439.656067,590.273560 440.110504,590.596680 440.708588,591.169861   C440.374084,591.107056 439.895935,590.794312 439.309692,590.215942  z"/>
<path fill="#92DDD2" opacity="1.000000" stroke="none" d=" M409.306915,384.932373   C409.237183,384.552673 409.422974,384.002808 409.811005,383.243469   C409.863007,383.610077 409.712708,384.186096 409.306915,384.932373  z"/>
<path fill="#92DDD2" opacity="1.000000" stroke="none" d=" M534.115356,256.804260   C533.807434,256.911285 533.287781,256.884460 532.384766,256.929810   C532.635437,256.891510 533.269531,256.780975 534.115356,256.804260  z"/>
<path fill="#92DDD2" opacity="1.000000" stroke="none" d=" M477.212402,411.665833   C477.180023,411.316071 477.401398,410.853729 477.802368,410.207825   C477.809998,410.533966 477.638062,411.043579 477.212402,411.665833  z"/>
<path fill="#92DDD2" opacity="1.000000" stroke="none" d=" M509.103149,629.309570   C509.522583,629.193054 510.075989,629.365417 510.827332,629.753845   C510.429230,629.846130 509.833160,629.722290 509.103149,629.309570  z"/>
<path fill="#1D7775" opacity="1.000000" stroke="none" d=" M618.636719,540.123352   C618.376160,540.360229 617.796021,540.608887 616.887817,540.869568   C617.145508,540.632751 617.731323,540.383972 618.636719,540.123352  z"/>
<path fill="#92DDD2" opacity="1.000000" stroke="none" d=" M487.297852,394.850922   C487.291168,394.472443 487.550812,393.953217 488.052826,393.257935   C488.051514,393.624603 487.807861,394.167419 487.297852,394.850922  z"/>
<path fill="#1D7775" opacity="1.000000" stroke="none" d=" M530.854980,539.787964   C530.568726,539.939148 530.095032,539.949951 529.266113,539.955933   C529.496460,539.849976 530.082031,539.748779 530.854980,539.787964  z"/>
<path fill="#92DDD2" opacity="1.000000" stroke="none" d=" M436.974182,588.226929   C437.099731,588.215149 437.350067,588.423523 437.817200,588.752686   C437.700653,588.757446 437.388977,588.615295 436.974182,588.226929  z"/>
<path fill="#92DDD2" opacity="1.000000" stroke="none" d=" M507.794678,628.340698   C507.949463,628.299683 508.251007,628.506042 508.773346,628.875610   C508.643250,628.888611 508.292328,628.738342 507.794678,628.340698  z"/>
<path fill="#81D0C5" opacity="1.000000" stroke="none" d=" M403.544281,489.603699   C403.339020,489.529510 403.262695,489.179688 403.168762,488.559174   C403.325165,488.635010 403.499176,488.981506 403.544281,489.603699  z"/>
<path fill="#92DDD2" opacity="1.000000" stroke="none" d=" M452.260864,321.890778   C452.241974,321.737793 452.471893,321.531952 452.876282,321.172546   C452.867096,321.288239 452.686707,321.561249 452.260864,321.890778  z"/>
<path fill="#92DDD2" opacity="1.000000" stroke="none" d=" M517.953003,494.273560   C518.124268,494.254425 518.376648,494.525635 518.814575,495.005127   C518.678101,494.996918 518.356140,494.780426 517.953003,494.273560  z"/>
<path fill="#92DDD2" opacity="1.000000" stroke="none" d=" M489.315857,391.231689   C489.245605,391.083374 489.408295,390.765137 489.699402,390.212341   C489.734772,390.339081 489.641754,390.700409 489.315857,391.231689  z"/>
<path fill="#92DDD2" opacity="1.000000" stroke="none" d=" M451.246033,322.858643   C451.229187,322.722717 451.437225,322.526581 451.789734,322.172119   C451.918793,322.359131 451.764374,322.620667 451.246033,322.858643  z"/>
<path fill="#92DDD2" opacity="1.000000" stroke="none" d=" M450.219238,323.826172   C450.225708,323.718750 450.434387,323.535858 450.762329,323.177338   C450.866058,323.345123 450.712677,323.594788 450.219238,323.826172  z"/>
<path fill="#1D7775" opacity="1.000000" stroke="none" d=" M743.862427,373.673950   C743.692322,373.653076 743.476379,373.337708 743.164307,372.746674   C743.317566,372.773834 743.567078,373.076660 743.862427,373.673950  z"/>
<path fill="#92DDD2" opacity="1.000000" stroke="none" d=" M449.238037,324.887054   C449.221283,324.758453 449.423309,324.551758 449.752747,324.168030   C449.908783,324.356812 449.767700,324.629486 449.238037,324.887054  z"/>
<path fill="#92DDD2" opacity="1.000000" stroke="none" d=" M448.224182,325.816254   C448.214874,325.676483 448.434967,325.495850 448.800232,325.157196   C448.937378,325.361145 448.773438,325.619873 448.224182,325.816254  z"/>
<path fill="#81D1C6" opacity="1.000000" stroke="none" d=" M373.826599,434.522949   C373.954620,434.628082 373.941437,434.799530 373.840576,435.213806   C373.532410,435.201904 373.509888,434.912781 373.826599,434.522949  z"/>
<path fill="#92DDD2" opacity="1.000000" stroke="none" d=" M605.952515,383.641418   C605.757690,383.715424 605.486755,383.517731 605.095337,383.095367   C605.275391,383.037048 605.575867,383.203369 605.952515,383.641418  z"/>
<path fill="#92DDD2" opacity="1.000000" stroke="none" d=" M486.246582,396.009766   C486.204803,395.841614 486.421906,395.600098 486.821655,395.197693   C486.833984,395.333038 486.667694,395.632904 486.246582,396.009766  z"/>
<path fill="#92DDD2" opacity="1.000000" stroke="none" d=" M488.340027,393.156860   C488.247650,392.973663 488.420990,392.688507 488.743347,392.202637   C488.796814,392.352875 488.701263,392.703888 488.340027,393.156860  z"/>
<path fill="#92DDD2" opacity="1.000000" stroke="none" d=" M584.954346,412.041748   C579.672607,421.876556 574.325317,431.621552 568.535706,441.096252   C566.437500,444.529877 566.320312,447.036987 568.447449,450.530701   C575.176575,461.583252 581.497375,472.884430 588.062988,484.416992   C586.047241,488.443390 585.110107,484.714417 584.544434,483.875275   C579.902405,476.989380 575.474976,469.958679 570.999390,462.961090   C570.552429,462.262268 570.340576,461.387207 569.814026,460.768982   C560.510742,449.845184 563.530640,439.560822 571.172302,429.307495   C574.540405,424.788361 577.323486,419.836792 580.592712,415.238281   C581.588074,413.838196 583.319519,412.961456 584.954346,412.041748  z"/>
<path fill="#1D7775" opacity="1.000000" stroke="none" d=" M732.616882,444.469910   C729.376404,444.547028 726.489319,444.547028 723.602173,444.547028   C723.548645,443.641327 723.495178,442.735657 723.441650,441.829956   C727.706360,441.376740 731.971069,440.923523 736.235779,440.470306   C736.440430,440.861542 736.645142,441.252777 736.849792,441.644043   C735.556580,442.560303 734.263428,443.476562 732.616882,444.469910  z"/>
<path fill="#1D7775" opacity="1.000000" stroke="none" d=" M733.473389,379.525116   C733.198792,380.280121 732.795227,380.778320 732.391663,381.276520   C732.063782,380.615753 731.735901,379.954956 731.408081,379.294159   C732.053528,379.285553 732.698914,379.276917 733.473389,379.525116  z"/>
</svg>